<?xml version="1.0" standalone="no"?><!DOCTYPE svg PUBLIC "-//W3C//DTD SVG 1.1//EN" "http://www.w3.org/Graphics/SVG/1.1/DTD/svg11.dtd"><svg t="1612518202498" class="icon" viewBox="0 0 1024 1024" version="1.1" xmlns="http://www.w3.org/2000/svg" p-id="48915" width="10" height="10" xmlns:xlink="http://www.w3.org/1999/xlink"><defs><style type="text/css"></style></defs><path d="M193.8 830.2c-19.4-19.4-19.4-51.3 0-70.7l565.7-565.7c19.4-19.4 51.3-19.4 70.7 0 19.4 19.4 19.4 51.3 0 70.7L264.5 830.2c-19.4 19.4-51.3 19.4-70.7 0z" fill="#ffffff" p-id="48916"></path><path d="M830.2 830.2c-19.4 19.4-51.3 19.4-70.7 0L193.8 264.5c-19.4-19.4-19.4-51.3 0-70.7 19.4-19.4 51.3-19.4 70.7 0l565.7 565.7c19.4 19.4 19.4 51.3 0 70.7z" fill="#ffffff" p-id="48917"></path></svg>