<?xml version="1.0" standalone="no"?><!DOCTYPE svg PUBLIC "-//W3C//DTD SVG 1.1//EN" "http://www.w3.org/Graphics/SVG/1.1/DTD/svg11.dtd"><svg t="1612518015881" class="icon" viewBox="0 0 1024 1024" version="1.1" xmlns="http://www.w3.org/2000/svg" p-id="41157" width="10" height="10" xmlns:xlink="http://www.w3.org/1999/xlink"><defs><style type="text/css"></style></defs><path d="M413.255 691.436c18.546-17.45 33.186-30.552 47.076-44.427 133.04-132.81 266.182-265.513 398.724-398.837 32.074-32.244 65.666-48.452 104.997-14.752 32.983 28.241 28.049 67.465-12.92 108.574-157.175 157.71-314.587 315.184-472.292 472.38-49.389 49.225-76.308 49.546-124.716 1.607-85.59-84.765-170.135-170.579-255.8-255.257-32.292-31.923-48.68-65.516-14.997-104.976 28.17-32.995 67.557-28.155 108.558 12.675 73.427 73.16 146.079 147.09 221.37 223.013z" p-id="41158" fill="#ffffff"></path></svg>