<svg class="icon" viewBox="0 0 1024 1024" xmlns="http://www.w3.org/2000/svg" width="100" height="100"><path d="M135.467 823.68a370.56 93.653 0 1 0 741.12 0 370.56 93.653 0 1 0-741.12 0z" fill="#B6C9CB"/><path d="M85.333 812.373V151.04c8.747-23.04 23.467-42.667 49.28-42.667 55.254 1.28 110.934-9.386 165.547 6.827a14.507 14.507 0 0 0 10.88-2.347 71.68 71.68 0 0 1 32.213-5.546h114.56a56.32 56.32 0 0 1 64 52.906 61.44 61.44 0 0 0-8.746 69.547 206.507 206.507 0 0 1 8.533 29.227v541.44a51.627 51.627 0 0 1-48.853 52.906c-55.254 0-111.147 8.96-165.974-6.186a13.867 13.867 0 0 0-9.173 0 95.573 95.573 0 0 1-45.653 6.186l-93.227 1.28c-33.707 2.56-61.44-6.613-73.387-42.24zm389.12-331.733V175.573c0-10.453 1.92-21.333-14.72-21.333H341.12a14.507 14.507 0 0 0-15.573 10.667 95.147 95.147 0 0 0-7.04 41.386v568.32c1.493 26.667 9.6 34.347 36.053 34.347h99.2c16.427 0 21.333-5.333 21.333-21.333-.853-102.4-.64-204.8-.64-306.987zm-342.4 0V787.2c0 9.6-1.92 20.053 13.654 19.84H266.24c6.187 0 11.52 0 13.44-7.893a139.093 139.093 0 0 0 8.32-39.04V200.32a145.92 145.92 0 0 0 0-15.573c-2.773-25.174-9.813-31.36-34.987-31.36h-99.2c-17.493 0-21.333 5.333-21.333 21.333 0 102.613-.427 205.227-.427 306.773z" fill="#314553"/><path d="M864 828.8l-62.08 21.333c-40.533 14.08-66.987 1.494-81.92-39.253-7.893-21.333-16.213-42.667-24.32-64l-3.627-3.84a64 64 0 0 0-5.76-24.32c-36.053-100.693-71.68-201.813-108.373-302.293-18.987-51.84-34.987-104.96-57.387-155.52A206.507 206.507 0 0 0 512 231.68a61.44 61.44 0 0 1 8.747-69.547 671.147 671.147 0 0 1 140.586-53.546c27.947-8.107 51.2 9.173 62.08 39.68q52.48 145.92 104.534 292.053l103.68 290.347c16.64 46.293 5.333 70.613-40.32 87.466-9.387 3.2-18.347 7.04-27.307 10.667zm26.88-71.893s-1.28-4.054-2.347-7.04Q784.64 458.88 680.96 168.107c-4.48-12.8-10.453-15.36-23.04-10.667-29.013 11.307-58.027 21.333-87.893 31.147-17.28 5.333-18.134 13.013-12.587 28.373 39.893 109.44 78.72 219.307 117.973 329.173l88.32 246.827c3.2 9.173 5.547 19.413 19.84 14.08 32.854-12.16 65.707-23.68 98.774-35.413a11.307 11.307 0 0 0 8.746-14.72z" fill="#793943"/><path d="M474.453 480.64v306.987c0 15.786-4.266 21.333-21.333 21.333-33.067-1.067-66.133 0-99.2 0-26.453 0-34.56-7.68-36.053-34.347v-568.32a95.147 95.147 0 0 1 7.04-41.386 14.507 14.507 0 0 1 15.573-10.667h118.613c16.64 0 14.72 10.453 14.72 21.333q.64 152.32.64 305.067zM412.16 576v132.053c0 11.094 1.067 21.334 14.72 22.827s16.64-11.093 16.427-23.04V443.733c0-11.093-1.067-21.333-14.72-22.826s-16.64 11.093-16.64 23.04c.426 43.093.213 87.04.213 132.053zm38.827-290.987a50.56 50.56 0 1 0-51.414 49.707 50.987 50.987 0 0 0 51.627-50.773zM357.76 641.067v67.84c0 10.88 2.347 21.333 14.72 21.333s16.64-9.387 16.64-21.333v-135.68c0-10.88-2.56-21.334-14.72-21.334s-16.64 9.387-16.64 21.334c.213 22.613 0 45.44 0 67.84zM132.053 481.493V176.427c0-16.854 4.267-22.827 21.334-21.334 33.066 1.28 66.133 0 99.2 0 25.386 0 32.213 6.187 34.986 31.36a145.92 145.92 0 0 1 0 15.574v559.786a139.093 139.093 0 0 1-8.32 39.04c-2.133 7.467-7.466 7.894-13.44 7.894H145.28c-15.573 0-13.653-10.24-13.653-19.84V511.573q.426-15.36.426-30.08zm62.294 106.667V467.84c0-11.733 0-23.893-15.36-24.107s-16 11.734-16 23.68v238.934c0 11.52 0 23.893 15.36 24.106s16-11.733 16-23.68c-.214-39.893 0-79.36 0-118.826zM256 283.733a50.56 50.56 0 1 0-51.2 49.92 50.773 50.773 0 0 0 51.2-49.92zm-7.68 341.334v-81.494c0-11.306-1.707-21.333-15.36-21.333s-16 10.24-16 21.333V708.48c0 11.307 1.707 21.333 15.36 21.333s16-10.24 16-21.333c.213-27.947.427-55.893.427-83.627z" fill="#B7E1EB"/><path d="M891.093 756.907a11.307 11.307 0 0 1-8.746 14.72c-32.854 11.733-65.92 23.466-98.774 35.413-14.293 5.333-16.64-4.907-19.84-14.08l-88.32-246.827C636.16 436.267 597.333 326.4 557.227 216.96c-5.547-15.147-4.694-23.04 12.586-28.373 29.654-8.96 58.88-20.054 87.894-31.147 12.586-4.907 18.56-2.347 23.04 10.667q103.68 290.986 207.786 581.76c1.28 2.986 2.134 5.973 2.56 7.04zm-120.32-266.24c0-2.56-2.133-6.827-3.626-11.094L687.787 256a82.56 82.56 0 0 0-3.627-8.96c-3.84-7.68-9.813-12.8-18.56-9.813a14.933 14.933 0 0 0-10.453 19.84c0 3.2 1.92 6.186 2.986 9.173l79.787 224.427a68.48 68.48 0 0 0 5.333 12.373 14.293 14.293 0 0 0 18.56 5.973c6.187-3.413 9.387-9.386 8.96-18.346zm19.2 128a50.56 50.56 0 1 0 50.134 50.986 50.987 50.987 0 0 0-50.774-50.986zm-96.64-182.4c0-2.987-2.56-8.534-4.48-14.08q-26.026-72.96-52.053-144.854c-3.84-10.88-7.467-24.746-23.253-19.413s-10.667 17.92-6.4 29.227l52.906 147.626a72.533 72.533 0 0 0 5.974 14.294 13.867 13.867 0 0 0 17.066 5.76c7.04-3.2 10.24-8.747 10.24-18.56z" fill="#FBB6AC"/><path d="M412.16 576V443.947c0-11.947 1.493-23.68 16.64-23.04s14.72 11.733 14.72 22.826V707.84c0 11.947-1.493 23.68-16.427 23.04s-14.72-11.733-14.72-22.827c0-45.013-.213-89.386-.213-132.053zm39.04-292.053a50.56 50.56 0 1 1-49.493-51.414 50.987 50.987 0 0 1 49.493 51.414zm-30.933-1.707c-2.347-11.52-8.747-18.987-21.334-18.133a18.987 18.987 0 0 0 1.494 38.186c12.586-.213 18.346-8.32 19.626-20.053zM357.76 641.067v-67.84c0-11.734 2.987-21.334 16.64-21.334s14.72 10.24 14.72 21.334v135.68c0 11.733-2.987 21.333-16.64 21.333s-14.72-10.24-14.72-21.333c.213-22.614 0-45.227 0-67.84zm-163.413-53.12v118.4c0 11.733 0 23.893-16 23.68s-15.36-12.587-15.36-24.107V466.987c0-11.734 0-23.894 16-23.68s15.36 12.586 15.36 24.106c-.214 40.32 0 80.427 0 120.534zM256 283.733a50.56 50.56 0 1 1-49.92-51.2 50.773 50.773 0 0 1 49.92 51.2zm-30.72 0a19.627 19.627 0 0 0-19.2-19.2 19.2 19.2 0 0 0-1.92 38.187c12.587.427 18.987-7.253 21.547-19.627zm23.467 341.12v83.414c0 11.52-2.347 21.333-16 21.333s-15.36-10.88-15.36-21.333V543.36c0-11.52 2.346-21.333 16-21.333s15.36 10.88 15.36 21.333c-.214 27.093 0 53.973 0 81.493z" fill="#314553"/><path d="M770.773 490.667c0 8.96-1.92 14.933-8.746 17.493a14.293 14.293 0 0 1-18.56-5.973 68.48 68.48 0 0 1-5.334-12.374l-80-222.72c-1.066-2.986-2.133-6.186-2.986-9.173a14.933 14.933 0 0 1 10.453-19.84c8.747-2.987 14.933 1.92 18.56 9.813a82.56 82.56 0 0 1 3.627 8.96L768 479.573c0 4.267 1.92 8.534 2.773 11.094zm18.56 128a50.56 50.56 0 1 1 0 100.906 50.56 50.56 0 0 1 0-100.906zm19.2 50.56c-1.92-11.52-8.106-19.414-20.053-18.987a18.987 18.987 0 0 0 0 37.973c12.587-.426 18.56-8.32 20.48-19.84zm-115.2-232.96c0 10.026-3.2 15.36-10.24 17.493a13.867 13.867 0 0 1-17.066-5.76 72.533 72.533 0 0 1-5.974-14.293L607.147 286.08c-4.054-11.307-9.174-24.107 6.4-29.227s19.2 8.534 23.253 19.414l52.053 145.92c1.92 4.48 3.414 11.093 4.48 14.08z" fill="#793943"/></svg>