<svg class="icon" viewBox="0 0 1024 1024" xmlns="http://www.w3.org/2000/svg" width="100" height="100"><path d="M678.64 514.007a168.448 168.448 0 1 0-168.447 167.706A168.07 168.07 0 0 0 678.64 514.007z" fill="#F4CA1C"/><path d="M983.04 603.412a242.488 242.488 0 0 0-280.392-238.407A253.322 253.322 0 0 0 256.22 287.18a249.134 249.134 0 0 0-48.957 153.385A203.397 203.397 0 0 0 240.189 844.8h527.775a31.99 31.99 0 0 0 14.75-3.717 242.038 242.038 0 0 0 200.326-237.67zM740.608 780.713H240.189a139.387 139.387 0 1 1 0-278.769 31.97 31.97 0 0 0 8.704-1.341 31.964 31.964 0 0 0 24.848-35.999 187.812 187.812 0 0 1 157.742-214.016 188.462 188.462 0 0 1 209.541 132.839 241.628 241.628 0 0 0-142.848 219.985 32.18 32.18 0 0 0 64.358 0 178.068 178.068 0 1 1 178.074 177.301z" fill="#595BB3"/></svg>