<svg class="icon" viewBox="0 0 1024 1024" xmlns="http://www.w3.org/2000/svg" width="100" height="100"><path d="M880.3 631.9c-3.4 0-6.9-.6-10.2-1.8-16.1-5.7-24.5-23.3-18.9-39.4 6.4-18.1 9.6-37.1 9.6-56.5 0-93.3-75.9-169.2-169.1-169.2-77.6 0-145.1 52.4-164 127.5-4.2 16.5-20.8 26.6-37.5 22.4-16.5-4.2-26.5-21-22.4-37.5 25.9-102.5 118-174.1 223.9-174.1 127.3 0 230.8 103.6 230.8 230.9 0 26.4-4.4 52.3-13.1 77-4.5 12.7-16.4 20.7-29.1 20.7z" fill="#09F"/><path d="M447.4 783.3H332.6c-127.3 0-230.9-97.5-230.9-217.3 0-94.9 65.9-178.3 160-206.8 10.2-117.9 109.5-210.7 230-210.7 107.1 0 201.8 75.8 225.3 180.1 3.7 16.6-6.8 33.1-23.4 36.9-16.7 3.9-33.2-6.7-36.9-23.3-17.1-76.4-86.5-131.9-165-131.9-93.3 0-169.2 75.9-169.2 169.1 1.7 8.1.3 15.4-4.4 22.3-4.6 6.9-11.7 10.4-19.9 12-78.2 14.8-134.9 78.9-134.9 152.4 0 85.8 75.9 155.6 169.2 155.6h114.8c17 0 30.9 13.8 30.9 30.9s-13.8 30.7-30.8 30.7zm112.7-31c-8.2 0-16.3-3.2-22.4-9.6-11.7-12.4-11.3-31.9 1.1-43.6l126.7-120.4c11.8-11.3 30.5-11.3 42.5 0L834.8 699c12.4 11.7 12.9 31.3 1.1 43.6-11.7 12.3-31.3 12.9-43.6 1.1L686.8 643.6 581.3 743.8c-5.9 5.7-13.6 8.5-21.2 8.5z" fill="#09F"/><path d="M686.8 879c-17 0-30.9-13.8-30.9-30.9V601c0-17 13.9-30.9 30.9-30.9s30.9 13.8 30.9 30.9v247.1c0 17.1-13.9 30.9-30.9 30.9z" fill="#09F"/></svg>